<!-- <?xml version="1.0" standalone="yes"?> -->
<svg width="{{ .width }}" height="{{ .height }}" viewBox="-25 -25 350 350">
<!-- <path fill="#ffffff" stroke="none" d="M0 0L0 132L1 132C2.30836 68.6109 68.6111 2.30859 132 1C121.496 -3.40756 103.42 0 92 0L0 0z"/> -->
<path fill="currentColor" stroke="none" d="M259 253C245.218 251.789 229.804 239.198 224 227C216.413 230.382 210.481 236.896 203 240.741C187.625 248.642 169.2 252.207 152 252.961C107.98 254.888 67.17 235.058 55.1551 190C52.1163 178.604 51.5253 166.74 52.0394 155C52.8436 136.634 62.2695 123.002 66.3233 106C68.4899 96.9129 56.5009 82.1868 61.8326 74.2292C67.4063 65.9103 84.0606 78.0647 92 75.1528C108.943 68.9388 120.792 57.4123 140 56.0895C148.987 55.4706 158.216 55.8649 167 57.8873C172.123 59.0669 178.785 63.0204 184 62.3966C191.76 61.4686 202.205 47.3631 209.945 50.2415C220.142 54.0336 213.035 78.6606 217.013 87C220.557 94.4289 227.411 100.729 231.573 108C240.556 123.697 245.124 141.078 246.83 159C248.235 173.752 235.308 196.665 243.943 209C253.374 222.472 268.707 217.1 283 221C324.358 150.128 291.109 52.9426 220 16.2585C169.378 -9.8566 107.293 -4.52832 61 28.0363C42.8348 40.8145 27.8703 58.5178 17.3086 78C-25.6775 157.293 12.7386 258.107 96 290.797C137.594 307.128 188.766 302.884 227 279.796C237.535 273.435 253.622 264.437 259 253z"/>
<!-- <path fill="#ffffff" stroke="none" d="M168 0L168 1C231.389 2.30862 297.691 68.6109 299 132L300 132L300 0L168 0M224 227C228.116 239.89 245.559 252.384 259 253C241.075 278.237 198.792 298.364 168 299L168 300L300 300L300 168L299 168C298.612 186.81 290.06 204.042 283 221C267.997 215.222 254.467 223.038 243.943 208C238.716 200.531 242.48 193.847 244.346 186C246.515 176.875 247.724 167.381 246.83 158C245.124 140.078 240.556 122.697 231.573 107C227.411 99.7291 220.557 93.429 217.013 86C212.682 76.9212 220.081 56.9595 211.721 50.6188C203.246 44.1907 189.957 64.3609 180 61.517C159.487 55.6579 138.591 52.9905 118 60.814C108.714 64.3424 99.3609 73.3905 90 75.3997C82.5053 77.0083 67.6748 66.2012 61.7569 73.4336C55.45 81.1416 68.9336 97.6717 65.6088 107C56.2728 133.194 48.4407 155.499 53.6142 184C65.4041 248.951 136.754 264.866 192 245.921C204.346 241.688 213.336 234.053 224 227z"/> -->
<path fill="currentColor" stroke="none" d="M68 117C69.1414 123.573 78.4863 122.763 84 123C80.9114 128.036 74.4785 127.887 69 128L69 132L83 131L70 144L83 139C83.0298 183.941 130.228 186.09 164 180.414C177.346 178.17 192.14 173.977 201.826 163.91C212.308 153.016 212 140.069 212 126L224 129L225 125C219.054 123.535 213.273 123.839 210 118C214.654 117.412 221.234 118.021 223 113C216.808 113.017 211.538 115.02 207 110L223 105L222 101C217.641 101.644 210.335 106.214 206.21 104.644C200.471 102.459 194.846 90.5004 190 86.1736C177.239 74.7807 158.956 69.5289 142 71.1698C126.493 72.6704 110.887 79.5668 100.174 91.0394C95.342 96.2135 91.2383 102.563 88.3125 109C86.9819 111.928 86.1943 117.071 82.7755 118.307C78.7135 119.776 72.2472 117.335 68 117z"/>
<!-- <path fill="#ffffff" stroke="none" d="M0 168L0 300L132 300L132 299C82.3655 297.976 34.9283 257.696 14.2585 215C6.94254 199.888 6.40032 182.837 0 168z"/> -->
</svg>
